<?xml version="1.0" encoding="iso-8859-1"?>
<!-- Generator: Adobe Illustrator 19.0.0, SVG Export Plug-In . SVG Version: 6.00 Build 0)  -->
<svg version="1.1" id="Layer_1" xmlns="http://www.w3.org/2000/svg" xmlns:xlink="http://www.w3.org/1999/xlink" x="0px" y="0px"
	 viewBox="0 0 300 300" style="enable-background:new 0 0 300 300;" xml:space="preserve">
<g>
	
		<linearGradient id="XMLID_88_" gradientUnits="userSpaceOnUse" x1="150.0201" y1="39.437" x2="150.0201" y2="266.1527" gradientTransform="matrix(1 0 0 -1 0 302)">
		<stop  offset="0" style="stop-color:#0131B9"/>
		<stop  offset="1" style="stop-color:#15B0F8"/>
	</linearGradient>
	<path id="XMLID_43_" style="fill:url(#XMLID_88_);" d="M189.036,142.486c3.11,6.305,2.051,14.192-3.181,19.422l-35.835,35.837
		l-35.837-35.837c-6.561-6.561-6.561-17.295,0-23.855l29.799-29.797l0.031-0.033c8.458-9.33,12.573-19.975,13.875-30.402
		c0.669-5.367,0.596-10.675-0.016-15.721l-0.031,0.033c-0.002-0.024-0.007-0.047-0.01-0.073c-1.151-9.486-4.2-18.032-7.761-24.252
		l0.05,0.113l-0.099-0.232l-50.003,49.922h0.08l-18.176,18.176l-0.024,0.024c-1.699,1.702-3.28,3.476-4.743,5.315
		c-19.481,24.512-17.893,60.385,4.767,83.044l68.099,68.099l0.04-0.04l68.058-68.058c18.828-18.828,23.108-46.777,12.84-69.753
		c-2.321-5.195-5.386-10.136-9.196-14.66c-1.149-1.364-2.363-2.687-3.644-3.97l-14.246-14.246l-14.26-14.26l-16.132,16.132
		l-16.132,16.132l-40.838,40.838c0.059,0.026,0.118,0.05,0.177,0.073c-0.019-0.007-0.043-0.014-0.064-0.024
		C139.199,163.361,170.198,161.236,189.036,142.486L189.036,142.486z"/>
	<linearGradient id="XMLID_89_" gradientUnits="userSpaceOnUse" x1="230.4846" y1="156.5351" x2="92.8176" y2="167.5351">
		<stop  offset="0" style="stop-color:#B213DA"/>
		<stop  offset="1" style="stop-color:#FFB443"/>
	</linearGradient>
	<path id="XMLID_42_" style="fill:url(#XMLID_89_);" d="M189.002,142.524c3.11,6.308,2.051,14.194-3.181,19.424l-35.835,35.837
		l12.625,12.625c1.931,1.931,5.081,1.931,7.014,0l32.328-32.33c11.878-11.878,14.634-29.494,8.264-44.033
		c-1.231-2.81-2.803-5.506-4.715-8.021c-1.075-1.416-2.259-2.774-3.55-4.065l-10.739-10.739c-1.931-1.931-5.081-1.931-7.012,0
		l-12.625,12.625l-20.981,20.981c-6.109,6.109-22.919,10.347-34.003,5.646C139.164,163.401,170.164,161.277,189.002,142.524
		L189.002,142.524z"/>
	<defs>
		<filter id="Adobe_OpacityMaskFilter" filterUnits="userSpaceOnUse" x="116.598" y="109.774" width="96.947" height="102.084">
			<feColorMatrix  type="matrix" values="1 0 0 0 0  0 1 0 0 0  0 0 1 0 0  0 0 0 1 0"/>
		</filter>
	</defs>
	<mask maskUnits="userSpaceOnUse" x="116.598" y="109.774" width="96.947" height="102.084" id="id0_2_">
		<defs>
			<filter id="Adobe_OpacityMaskFilter_1_" filterUnits="userSpaceOnUse" x="116.319" y="109.494" width="97.505" height="102.643">
				<feFlood  style="flood-color:white;flood-opacity:1" result="back"/>
				<feBlend  in="SourceGraphic" in2="back" mode="normal"/>
			</filter>
		</defs>
		
			<mask maskUnits="userSpaceOnUse" x="116.319" y="109.494" width="97.505" height="102.643" id="id0_2_" style="filter:url(#Adobe_OpacityMaskFilter);">
			<g style="filter:url(#Adobe_OpacityMaskFilter_1_);">
				<defs>
					
						<filter id="Adobe_OpacityMaskFilter_2_" filterUnits="userSpaceOnUse" x="116.319" y="109.494" width="97.505" height="102.643">
						<feFlood  style="flood-color:white;flood-opacity:1" result="back"/>
						<feBlend  in="SourceGraphic" in2="back" mode="normal"/>
					</filter>
				</defs>
				<mask maskUnits="userSpaceOnUse" x="116.319" y="109.494" width="97.505" height="102.643" id="id0_2_">
					<g style="filter:url(#Adobe_OpacityMaskFilter_2_);">
					</g>
				</mask>
				
					<linearGradient id="XMLID_90_" gradientUnits="userSpaceOnUse" x1="299.7543" y1="-18.6841" x2="136.3603" y2="175.2652" gradientTransform="matrix(1 0 0 -1 0 302)">
					<stop  offset="0" style="stop-color:#FFFFFF"/>
					<stop  offset="1" style="stop-color:#000000"/>
				</linearGradient>
				
					<rect id="XMLID_39_" x="116.319" y="109.494" style="mask:url(#id0_2_);fill:url(#XMLID_90_);" width="97.505" height="102.643"/>
			</g>
		</mask>
		
			<linearGradient id="XMLID_91_" gradientUnits="userSpaceOnUse" x1="299.7543" y1="-18.6841" x2="136.3603" y2="175.2652" gradientTransform="matrix(1 0 0 -1 0 302)">
			<stop  offset="0" style="stop-color:#FFFFFF"/>
			<stop  offset="1" style="stop-color:#FFFFFF"/>
		</linearGradient>
		<rect id="XMLID_40_" x="116.319" y="109.494" style="fill:url(#XMLID_91_);" width="97.505" height="102.643"/>
	</mask>
	<linearGradient id="XMLID_92_" gradientUnits="userSpaceOnUse" x1="116.5983" y1="160.8157" x2="213.5455" y2="160.8157">
		<stop  offset="0" style="stop-color:#3257DA"/>
		<stop  offset="1" style="stop-color:#DF45EC"/>
	</linearGradient>
	<path id="XMLID_41_" style="fill:url(#XMLID_92_);" d="M155.824,191.938l-5.844,5.847l12.625,12.625
		c1.931,1.931,5.081,1.931,7.014,0l32.328-32.33c11.878-11.878,14.634-29.494,8.264-44.033c-1.231-2.81-2.803-5.506-4.715-8.021
		c-1.075-1.416-2.259-2.774-3.55-4.065l-10.739-10.739c-1.931-1.931-5.081-1.931-7.012,0l-12.625,12.625l-20.981,20.981
		c-6.107,6.107-22.905,10.344-33.991,5.651c12.57,5.381,30.619,9.413,43.655-3.625l27.45-27.447l8.399,8.399
		c1.009,1.009,1.95,2.084,2.812,3.221c1.487,1.957,2.737,4.084,3.725,6.336c5.18,11.826,2.623,25.713-6.537,34.873l-29.99,29.99
		L155.824,191.938L155.824,191.938z"/>
	<linearGradient id="XMLID_93_" gradientUnits="userSpaceOnUse" x1="22.2461" y1="144.6979" x2="174.2465" y2="151.0312">
		<stop  offset="0" style="stop-color:#3257DA"/>
		<stop  offset="1" style="stop-color:#DF45EC"/>
	</linearGradient>
	<path id="XMLID_38_" style="fill:url(#XMLID_93_);" d="M98.013,121.961l42.225-42.225c12.055-12.058,17.597-23.846,9.742-42.005
		l-50,49.922h0.078l-18.176,18.176l-0.024,0.021c-1.699,1.702-3.28,3.479-4.743,5.317c-19.481,24.512-17.893,60.385,4.767,83.044
		l68.099,68.098l0.04-0.04c3.257-4.455,5.18-9.947,5.18-15.889c0-6.953-2.633-13.289-6.955-18.07l-1.921-1.919L98.013,178.08
		c-13.74-13.74-15.272-35.159-4.597-50.61C94.757,125.529,96.288,123.684,98.013,121.961L98.013,121.961z"/>
	<defs>
		<filter id="Adobe_OpacityMaskFilter_3_" filterUnits="userSpaceOnUse" x="85.012" y="37.73" width="70.188" height="224.58">
			<feColorMatrix  type="matrix" values="1 0 0 0 0  0 1 0 0 0  0 0 1 0 0  0 0 0 1 0"/>
		</filter>
	</defs>
	<mask maskUnits="userSpaceOnUse" x="85.012" y="37.73" width="70.188" height="224.58" id="id2_2_">
		<defs>
			<filter id="Adobe_OpacityMaskFilter_4_" filterUnits="userSpaceOnUse" x="84.734" y="37.451" width="70.745" height="225.138">
				<feFlood  style="flood-color:white;flood-opacity:1" result="back"/>
				<feBlend  in="SourceGraphic" in2="back" mode="normal"/>
			</filter>
		</defs>
		
			<mask maskUnits="userSpaceOnUse" x="84.734" y="37.451" width="70.745" height="225.138" id="id2_2_" style="filter:url(#Adobe_OpacityMaskFilter_3_);">
			<g style="filter:url(#Adobe_OpacityMaskFilter_4_);">
				<defs>
					<filter id="Adobe_OpacityMaskFilter_5_" filterUnits="userSpaceOnUse" x="84.734" y="37.451" width="70.745" height="225.138">
						<feFlood  style="flood-color:white;flood-opacity:1" result="back"/>
						<feBlend  in="SourceGraphic" in2="back" mode="normal"/>
					</filter>
				</defs>
				<mask maskUnits="userSpaceOnUse" x="84.734" y="37.451" width="70.745" height="225.138" id="id2_2_">
					<g style="filter:url(#Adobe_OpacityMaskFilter_5_);">
					</g>
				</mask>
				
					<linearGradient id="XMLID_94_" gradientUnits="userSpaceOnUse" x1="120.1066" y1="316.2626" x2="120.1066" y2="47.0363" gradientTransform="matrix(1 0 0 -1 0 302)">
					<stop  offset="0" style="stop-color:#FFFFFF"/>
					<stop  offset="1" style="stop-color:#000000"/>
				</linearGradient>
				<rect id="XMLID_34_" x="84.734" y="37.451" style="mask:url(#id2_2_);fill:url(#XMLID_94_);" width="70.745" height="225.138"/>
			</g>
		</mask>
		
			<linearGradient id="XMLID_95_" gradientUnits="userSpaceOnUse" x1="120.1066" y1="316.2626" x2="120.1066" y2="47.0363" gradientTransform="matrix(1 0 0 -1 0 302)">
			<stop  offset="0" style="stop-color:#FFFFFF"/>
			<stop  offset="1" style="stop-color:#FFFFFF"/>
		</linearGradient>
		<rect id="XMLID_35_" x="84.734" y="37.451" style="fill:url(#XMLID_95_);" width="70.745" height="225.138"/>
	</mask>
	<linearGradient id="SVGID_1_" gradientUnits="userSpaceOnUse" x1="85.0122" y1="150.0201" x2="155.2004" y2="150.0201">
		<stop  offset="0" style="stop-color:#B213DA"/>
		<stop  offset="1" style="stop-color:#FFB443"/>
	</linearGradient>
	<path style="fill:url(#SVGID_1_);" d="M98.013,121.961l42.225-42.225c12.027-12.029,17.571-23.791,9.796-41.878
		c5.826,17.158,1.548,28.551-10.788,40.885l-42.225,42.225c-16.011,16.011-16.011,42.093,0,58.102l47.677,47.677
		c0.837,0.837,1.713,1.628,2.508,2.505c7.333,8.106,9.86,21.655,2.775,33.058l0.04-0.04c3.257-4.455,5.18-9.947,5.18-15.889
		c0-6.953-2.633-13.289-6.955-18.07l-1.921-1.919L98.013,178.08c-13.74-13.74-15.272-35.159-4.597-50.61
		C94.757,125.529,96.288,123.684,98.013,121.961L98.013,121.961z M150.03,37.848l-0.05-0.118l-0.073,0.073L150.03,37.848z"/>
	<linearGradient id="XMLID_96_" gradientUnits="userSpaceOnUse" x1="68.9277" y1="162.1342" x2="250.2609" y2="135.1342">
		<stop  offset="0" style="stop-color:#B213DA"/>
		<stop  offset="1" style="stop-color:#FFB443"/>
	</linearGradient>
	<path id="XMLID_33_" style="fill:url(#XMLID_96_);" d="M157.847,77.861c0.671-5.367,0.596-10.677-0.016-15.721l-0.031,0.031
		c-0.002-0.024-0.005-0.047-0.009-0.071c-1.149-9.486-4.2-18.034-7.761-24.252c7.782,18.091,2.238,29.856-9.791,41.887
		l-42.225,42.225c-15.465,15.463-15.465,40.656,0,56.119l48.311,48.313c0.671,0.607,1.314,1.248,1.921,1.919
		c4.323,4.781,6.955,11.117,6.955,18.07c0,5.941-1.924,11.434-5.18,15.889l68.058-68.058c18.828-18.828,23.108-46.777,12.842-69.753
		c-2.323-5.197-5.388-10.136-9.198-14.662c-1.146-1.361-2.363-2.687-3.644-3.968l-14.246-14.246l-14.26-14.26L173.44,93.454
		l-16.13,16.132l-40.84,40.838c11.093,4.771,27.989,0.534,34.119-5.596l20.981-20.981l12.625-12.625
		c1.931-1.931,5.081-1.931,7.012,0l10.739,10.739c1.29,1.29,2.474,2.649,3.55,4.065c1.912,2.515,3.483,5.211,4.715,8.021
		c6.369,14.539,3.613,32.155-8.264,44.033l-32.328,32.33c-1.933,1.931-5.083,1.931-7.014,0l-12.625-12.625l-35.837-35.837
		c-6.561-6.561-6.561-17.295,0-23.858l29.799-29.797l0.031-0.031C152.431,98.933,156.545,88.288,157.847,77.861L157.847,77.861z"/>
	<defs>
		<filter id="Adobe_OpacityMaskFilter_6_" filterUnits="userSpaceOnUse" x="114.143" y="108.357" width="100.825" height="104.918">
			<feColorMatrix  type="matrix" values="1 0 0 0 0  0 1 0 0 0  0 0 1 0 0  0 0 0 1 0"/>
		</filter>
	</defs>
	<mask maskUnits="userSpaceOnUse" x="114.143" y="108.357" width="100.825" height="104.918" id="id4_2_">
		<defs>
			
				<filter id="Adobe_OpacityMaskFilter_7_" filterUnits="userSpaceOnUse" x="113.864" y="108.079" width="101.383" height="105.474">
				<feFlood  style="flood-color:white;flood-opacity:1" result="back"/>
				<feBlend  in="SourceGraphic" in2="back" mode="normal"/>
			</filter>
		</defs>
		
			<mask maskUnits="userSpaceOnUse" x="113.864" y="108.079" width="101.383" height="105.474" id="id4_2_" style="filter:url(#Adobe_OpacityMaskFilter_6_);">
			<g style="filter:url(#Adobe_OpacityMaskFilter_7_);">
				<defs>
					
						<filter id="Adobe_OpacityMaskFilter_8_" filterUnits="userSpaceOnUse" x="113.864" y="108.079" width="101.383" height="105.474">
						<feFlood  style="flood-color:white;flood-opacity:1" result="back"/>
						<feBlend  in="SourceGraphic" in2="back" mode="normal"/>
					</filter>
				</defs>
				<mask maskUnits="userSpaceOnUse" x="113.864" y="108.079" width="101.383" height="105.474" id="id4_2_">
					<g style="filter:url(#Adobe_OpacityMaskFilter_8_);">
					</g>
				</mask>
				
					<linearGradient id="XMLID_97_" gradientUnits="userSpaceOnUse" x1="164.5556" y1="419.0664" x2="164.5556" y2="107.8841" gradientTransform="matrix(1 0 0 -1 0 302)">
					<stop  offset="0" style="stop-color:#FFFFFF"/>
					<stop  offset="1" style="stop-color:#000000"/>
				</linearGradient>
				
					<rect id="XMLID_30_" x="113.864" y="108.079" style="mask:url(#id4_2_);fill:url(#XMLID_97_);" width="101.383" height="105.474"/>
			</g>
		</mask>
		
			<linearGradient id="XMLID_98_" gradientUnits="userSpaceOnUse" x1="164.5556" y1="419.0664" x2="164.5556" y2="107.8841" gradientTransform="matrix(1 0 0 -1 0 302)">
			<stop  offset="0" style="stop-color:#FFFFFF"/>
			<stop  offset="1" style="stop-color:#FFFFFF"/>
		</linearGradient>
		<rect id="XMLID_31_" x="113.864" y="108.079" style="fill:url(#XMLID_98_);" width="101.383" height="105.474"/>
	</mask>
	<path id="XMLID_32_" style="fill:#F6DCFD;" d="M116.511,150.384l-0.04,0.04c11.093,4.771,27.989,0.534,34.119-5.596l20.981-20.981
		l12.625-12.625c1.931-1.931,5.081-1.931,7.012,0l10.739,10.739c1.29,1.29,2.474,2.649,3.55,4.065
		c1.912,2.515,3.484,5.211,4.715,8.021c6.369,14.539,3.613,32.155-8.264,44.033l-32.328,32.33c-1.933,1.931-5.091,1.938-7.014,0
		l-12.585-12.665l-35.877-35.797l34.114,35.556l13.346,13.908c2.484,2.484,6.532,2.484,9.018,0l32.328-32.33
		c11.984-11.984,15.338-30.132,8.56-45.605c-1.293-2.952-2.935-5.743-4.885-8.309c-1.127-1.484-2.356-2.89-3.675-4.209
		L192.21,110.22c-2.484-2.484-6.532-2.484-9.016,0l-33.606,33.606C142.64,150.774,126.749,153.452,116.511,150.384L116.511,150.384z
		"/>
	<defs>
		<filter id="Adobe_OpacityMaskFilter_9_" filterUnits="userSpaceOnUse" x="86.414" y="37.848" width="77.148" height="224.422">
			<feColorMatrix  type="matrix" values="1 0 0 0 0  0 1 0 0 0  0 0 1 0 0  0 0 0 1 0"/>
		</filter>
	</defs>
	<mask maskUnits="userSpaceOnUse" x="86.414" y="37.848" width="77.148" height="224.422" id="id6_2_">
		<defs>
			<filter id="Adobe_OpacityMaskFilter_10_" filterUnits="userSpaceOnUse" x="86.135" y="37.569" width="77.705" height="224.979">
				<feFlood  style="flood-color:white;flood-opacity:1" result="back"/>
				<feBlend  in="SourceGraphic" in2="back" mode="normal"/>
			</filter>
		</defs>
		
			<mask maskUnits="userSpaceOnUse" x="86.135" y="37.569" width="77.705" height="224.979" id="id6_2_" style="filter:url(#Adobe_OpacityMaskFilter_9_);">
			<g style="filter:url(#Adobe_OpacityMaskFilter_10_);">
				<defs>
					
						<filter id="Adobe_OpacityMaskFilter_11_" filterUnits="userSpaceOnUse" x="86.135" y="37.569" width="77.705" height="224.979">
						<feFlood  style="flood-color:white;flood-opacity:1" result="back"/>
						<feBlend  in="SourceGraphic" in2="back" mode="normal"/>
					</filter>
				</defs>
				<mask maskUnits="userSpaceOnUse" x="86.135" y="37.569" width="77.705" height="224.979" id="id6_2_">
					<g style="filter:url(#Adobe_OpacityMaskFilter_11_);">
					</g>
				</mask>
				
					<linearGradient id="XMLID_99_" gradientUnits="userSpaceOnUse" x1="124.988" y1="-301.4508" x2="124.988" y2="290.139" gradientTransform="matrix(1 0 0 -1 0 302)">
					<stop  offset="0" style="stop-color:#FFFFFF"/>
					<stop  offset="1" style="stop-color:#000000"/>
				</linearGradient>
				<rect id="XMLID_27_" x="86.135" y="37.569" style="mask:url(#id6_2_);fill:url(#XMLID_99_);" width="77.705" height="224.979"/>
			</g>
		</mask>
		
			<linearGradient id="XMLID_100_" gradientUnits="userSpaceOnUse" x1="124.988" y1="-301.4508" x2="124.988" y2="290.139" gradientTransform="matrix(1 0 0 -1 0 302)">
			<stop  offset="0" style="stop-color:#FFFFFF"/>
			<stop  offset="1" style="stop-color:#FFFFFF"/>
		</linearGradient>
		<rect id="XMLID_28_" x="86.135" y="37.569" style="fill:url(#XMLID_100_);" width="77.705" height="224.979"/>
	</mask>
	<linearGradient id="XMLID_101_" gradientUnits="userSpaceOnUse" x1="86.4142" y1="150.0591" x2="163.5618" y2="150.0591">
		<stop  offset="0" style="stop-color:#3257DA"/>
		<stop  offset="1" style="stop-color:#DF45EC"/>
	</linearGradient>
	<path id="XMLID_29_" style="fill:url(#XMLID_101_);" d="M150.611,38.893c-0.191-0.354-0.385-0.704-0.581-1.045
		c7.782,18.091,2.238,29.856-9.791,41.887l-42.225,42.225c-15.465,15.463-15.465,40.656,0,56.119l48.311,48.313
		c0.671,0.607,1.314,1.248,1.921,1.919c4.322,4.781,6.955,11.117,6.955,18.07c0,5.941-1.924,11.434-5.18,15.889l13.457-13.459
		c0.057-0.806,0.085-1.617,0.085-2.43c0-8.773-3.233-17.172-9.118-23.678l-0.139-0.154l-50.381-50.381
		c-10.663-10.663-12.188-27.558-3.63-39.949c1.075-1.555,2.292-3.011,3.63-4.348l36.357-36.357
		C155.215,76.58,160.064,58.577,150.611,38.893L150.611,38.893z"/>
</g>
<g>
	<path id="XMLID_73_" style="fill:#FFFFFF;" d="M509.036,142.486c3.11,6.305,2.051,14.192-3.181,19.422l-35.835,35.837
		l-35.837-35.837c-6.561-6.561-6.561-17.295,0-23.855l29.799-29.797l0.031-0.033c8.458-9.33,12.573-19.975,13.875-30.402
		c0.669-5.367,0.596-10.675-0.017-15.721l-0.031,0.033c-0.002-0.024-0.007-0.047-0.009-0.073c-1.151-9.486-4.2-18.032-7.761-24.252
		l0.05,0.113l-0.099-0.232l-50.003,49.922h0.08l-18.176,18.176l-0.024,0.024c-1.699,1.702-3.28,3.476-4.743,5.315
		c-19.481,24.512-17.893,60.385,4.767,83.044l68.099,68.099l0.04-0.04l68.058-68.058c18.828-18.828,23.108-46.777,12.84-69.753
		c-2.321-5.195-5.386-10.136-9.196-14.66c-1.149-1.364-2.363-2.687-3.644-3.97l-14.246-14.246l-14.26-14.26l-16.132,16.132
		l-16.132,16.132l-40.838,40.838c0.059,0.026,0.118,0.05,0.177,0.073c-0.019-0.007-0.043-0.014-0.064-0.024
		C459.199,163.361,490.198,161.236,509.036,142.486L509.036,142.486z"/>
	<path id="XMLID_72_" style="fill:#FFFFFF;" d="M508.996,142.524c3.11,6.308,2.051,14.194-3.181,19.424l-35.835,35.837
		l12.625,12.625c1.931,1.931,5.081,1.931,7.014,0l32.328-32.33c11.878-11.878,14.634-29.494,8.264-44.033
		c-1.231-2.81-2.803-5.506-4.715-8.021c-1.075-1.416-2.259-2.774-3.55-4.065l-10.739-10.739c-1.931-1.931-5.081-1.931-7.012,0
		l-12.625,12.625l-20.981,20.981c-6.109,6.109-22.919,10.347-34.003,5.646C459.158,163.401,490.158,161.277,508.996,142.524
		L508.996,142.524z"/>
	<defs>
		<filter id="Adobe_OpacityMaskFilter_12_" filterUnits="userSpaceOnUse" x="436.598" y="109.774" width="96.947" height="102.084">
			<feColorMatrix  type="matrix" values="1 0 0 0 0  0 1 0 0 0  0 0 1 0 0  0 0 0 1 0"/>
		</filter>
	</defs>
	<mask maskUnits="userSpaceOnUse" x="436.598" y="109.774" width="96.947" height="102.084" id="id0_1_">
		<defs>
			
				<filter id="Adobe_OpacityMaskFilter_13_" filterUnits="userSpaceOnUse" x="436.319" y="109.494" width="97.505" height="102.643">
				<feFlood  style="flood-color:white;flood-opacity:1" result="back"/>
				<feBlend  in="SourceGraphic" in2="back" mode="normal"/>
			</filter>
		</defs>
		
			<mask maskUnits="userSpaceOnUse" x="436.319" y="109.494" width="97.505" height="102.643" id="id0_1_" style="filter:url(#Adobe_OpacityMaskFilter_12_);">
			<g style="filter:url(#Adobe_OpacityMaskFilter_13_);">
				<defs>
					
						<filter id="Adobe_OpacityMaskFilter_14_" filterUnits="userSpaceOnUse" x="436.319" y="109.494" width="97.505" height="102.643">
						<feFlood  style="flood-color:white;flood-opacity:1" result="back"/>
						<feBlend  in="SourceGraphic" in2="back" mode="normal"/>
					</filter>
				</defs>
				<mask maskUnits="userSpaceOnUse" x="436.319" y="109.494" width="97.505" height="102.643" id="id0_1_">
					<g style="filter:url(#Adobe_OpacityMaskFilter_14_);">
					</g>
				</mask>
				
					<linearGradient id="XMLID_102_" gradientUnits="userSpaceOnUse" x1="619.7543" y1="-18.6841" x2="456.3604" y2="175.2652" gradientTransform="matrix(1 0 0 -1 0 302)">
					<stop  offset="0" style="stop-color:#FFFFFF"/>
					<stop  offset="1" style="stop-color:#000000"/>
				</linearGradient>
				
					<rect id="XMLID_69_" x="436.319" y="109.494" style="mask:url(#id0_1_);fill:url(#XMLID_102_);" width="97.505" height="102.643"/>
			</g>
		</mask>
		
			<linearGradient id="XMLID_103_" gradientUnits="userSpaceOnUse" x1="619.7543" y1="-18.6841" x2="456.3604" y2="175.2652" gradientTransform="matrix(1 0 0 -1 0 302)">
			<stop  offset="0" style="stop-color:#FFFFFF"/>
			<stop  offset="1" style="stop-color:#FFFFFF"/>
		</linearGradient>
		<rect id="XMLID_70_" x="436.319" y="109.494" style="fill:url(#XMLID_103_);" width="97.505" height="102.643"/>
	</mask>
	<path id="XMLID_71_" style="fill:#FFFFFF;" d="M475.824,191.938l-5.844,5.847l12.625,12.625c1.931,1.931,5.081,1.931,7.014,0
		l32.328-32.33c11.878-11.878,14.634-29.494,8.264-44.033c-1.231-2.81-2.803-5.506-4.715-8.021c-1.075-1.416-2.259-2.774-3.55-4.065
		l-10.739-10.739c-1.931-1.931-5.081-1.931-7.012,0l-12.625,12.625l-20.981,20.981c-6.107,6.107-22.905,10.344-33.991,5.651
		c12.57,5.381,30.619,9.413,43.655-3.625l27.45-27.447l8.399,8.399c1.009,1.009,1.95,2.084,2.812,3.221
		c1.487,1.957,2.737,4.084,3.725,6.336c5.18,11.826,2.623,25.713-6.537,34.873l-29.99,29.99L475.824,191.938L475.824,191.938z"/>
	<path id="XMLID_68_" style="fill:#FFFFFF;" d="M418.013,121.961l42.225-42.225c12.055-12.058,17.597-23.846,9.742-42.005
		l-50,49.922h0.078l-18.176,18.176l-0.024,0.021c-1.699,1.702-3.28,3.479-4.743,5.317c-19.481,24.512-17.893,60.385,4.767,83.044
		l68.099,68.098l0.04-0.04c3.257-4.455,5.18-9.947,5.18-15.889c0-6.953-2.633-13.289-6.955-18.07l-1.921-1.919l-48.311-48.313
		c-13.74-13.74-15.272-35.159-4.597-50.61C414.757,125.529,416.288,123.684,418.013,121.961L418.013,121.961z"/>
	<defs>
		<filter id="Adobe_OpacityMaskFilter_15_" filterUnits="userSpaceOnUse" x="405.012" y="37.73" width="70.188" height="224.58">
			<feColorMatrix  type="matrix" values="1 0 0 0 0  0 1 0 0 0  0 0 1 0 0  0 0 0 1 0"/>
		</filter>
	</defs>
	<mask maskUnits="userSpaceOnUse" x="405.012" y="37.73" width="70.188" height="224.58" id="id2_1_">
		<defs>
			<filter id="Adobe_OpacityMaskFilter_16_" filterUnits="userSpaceOnUse" x="404.734" y="37.451" width="70.745" height="225.138">
				<feFlood  style="flood-color:white;flood-opacity:1" result="back"/>
				<feBlend  in="SourceGraphic" in2="back" mode="normal"/>
			</filter>
		</defs>
		
			<mask maskUnits="userSpaceOnUse" x="404.734" y="37.451" width="70.745" height="225.138" id="id2_1_" style="filter:url(#Adobe_OpacityMaskFilter_15_);">
			<g style="filter:url(#Adobe_OpacityMaskFilter_16_);">
				<defs>
					
						<filter id="Adobe_OpacityMaskFilter_17_" filterUnits="userSpaceOnUse" x="404.734" y="37.451" width="70.745" height="225.138">
						<feFlood  style="flood-color:white;flood-opacity:1" result="back"/>
						<feBlend  in="SourceGraphic" in2="back" mode="normal"/>
					</filter>
				</defs>
				<mask maskUnits="userSpaceOnUse" x="404.734" y="37.451" width="70.745" height="225.138" id="id2_1_">
					<g style="filter:url(#Adobe_OpacityMaskFilter_17_);">
					</g>
				</mask>
				
					<linearGradient id="XMLID_104_" gradientUnits="userSpaceOnUse" x1="440.1066" y1="316.2626" x2="440.1066" y2="47.0363" gradientTransform="matrix(1 0 0 -1 0 302)">
					<stop  offset="0" style="stop-color:#FFFFFF"/>
					<stop  offset="1" style="stop-color:#000000"/>
				</linearGradient>
				
					<rect id="XMLID_64_" x="404.734" y="37.451" style="mask:url(#id2_1_);fill:url(#XMLID_104_);" width="70.745" height="225.138"/>
			</g>
		</mask>
		
			<linearGradient id="XMLID_105_" gradientUnits="userSpaceOnUse" x1="440.1066" y1="316.2626" x2="440.1066" y2="47.0363" gradientTransform="matrix(1 0 0 -1 0 302)">
			<stop  offset="0" style="stop-color:#FFFFFF"/>
			<stop  offset="1" style="stop-color:#FFFFFF"/>
		</linearGradient>
		<rect id="XMLID_65_" x="404.734" y="37.451" style="fill:url(#XMLID_105_);" width="70.745" height="225.138"/>
	</mask>
	<path style="fill:#FFFFFF;" d="M418.013,121.961l42.225-42.225c12.027-12.029,17.571-23.791,9.796-41.878
		c5.826,17.158,1.548,28.551-10.788,40.885l-42.225,42.225c-16.011,16.011-16.011,42.093,0,58.102l47.677,47.677
		c0.837,0.837,1.713,1.628,2.508,2.505c7.333,8.106,9.86,21.655,2.775,33.058l0.04-0.04c3.257-4.455,5.18-9.947,5.18-15.889
		c0-6.953-2.633-13.289-6.955-18.07l-1.921-1.919l-48.311-48.313c-13.74-13.74-15.272-35.159-4.597-50.61
		C414.757,125.529,416.288,123.684,418.013,121.961L418.013,121.961z M470.03,37.848l-0.05-0.118l-0.073,0.073L470.03,37.848z"/>
	<path id="XMLID_63_" style="fill:#FFFFFF;" d="M477.847,77.861c0.671-5.367,0.596-10.677-0.017-15.721l-0.031,0.031
		c-0.002-0.024-0.005-0.047-0.009-0.071c-1.148-9.486-4.2-18.034-7.761-24.252c7.782,18.091,2.238,29.856-9.791,41.887
		l-42.225,42.225c-15.465,15.463-15.465,40.656,0,56.119l48.311,48.313c0.671,0.607,1.314,1.248,1.921,1.919
		c4.323,4.781,6.955,11.117,6.955,18.07c0,5.941-1.924,11.434-5.18,15.889l68.058-68.058c18.828-18.828,23.108-46.777,12.842-69.753
		c-2.323-5.197-5.388-10.136-9.198-14.662c-1.146-1.361-2.363-2.687-3.644-3.968l-14.246-14.246l-14.26-14.26L493.44,93.454
		l-16.13,16.132l-40.84,40.838c11.093,4.771,27.989,0.534,34.119-5.596l20.981-20.981l12.625-12.625
		c1.931-1.931,5.081-1.931,7.012,0l10.739,10.739c1.29,1.29,2.474,2.649,3.55,4.065c1.912,2.515,3.484,5.211,4.715,8.021
		c6.369,14.539,3.613,32.155-8.265,44.033l-32.328,32.33c-1.933,1.931-5.084,1.931-7.014,0l-12.625-12.625l-35.837-35.837
		c-6.56-6.561-6.56-17.295,0-23.858l29.799-29.797l0.031-0.031C472.431,98.933,476.545,88.288,477.847,77.861L477.847,77.861z"/>
	<defs>
		
			<filter id="Adobe_OpacityMaskFilter_18_" filterUnits="userSpaceOnUse" x="434.143" y="108.357" width="100.825" height="104.918">
			<feColorMatrix  type="matrix" values="1 0 0 0 0  0 1 0 0 0  0 0 1 0 0  0 0 0 1 0"/>
		</filter>
	</defs>
	<mask maskUnits="userSpaceOnUse" x="434.143" y="108.357" width="100.825" height="104.918" id="id4_1_">
		<defs>
			
				<filter id="Adobe_OpacityMaskFilter_19_" filterUnits="userSpaceOnUse" x="433.864" y="108.079" width="101.383" height="105.474">
				<feFlood  style="flood-color:white;flood-opacity:1" result="back"/>
				<feBlend  in="SourceGraphic" in2="back" mode="normal"/>
			</filter>
		</defs>
		
			<mask maskUnits="userSpaceOnUse" x="433.864" y="108.079" width="101.383" height="105.474" id="id4_1_" style="filter:url(#Adobe_OpacityMaskFilter_18_);">
			<g style="filter:url(#Adobe_OpacityMaskFilter_19_);">
				<defs>
					
						<filter id="Adobe_OpacityMaskFilter_20_" filterUnits="userSpaceOnUse" x="433.864" y="108.079" width="101.383" height="105.474">
						<feFlood  style="flood-color:white;flood-opacity:1" result="back"/>
						<feBlend  in="SourceGraphic" in2="back" mode="normal"/>
					</filter>
				</defs>
				<mask maskUnits="userSpaceOnUse" x="433.864" y="108.079" width="101.383" height="105.474" id="id4_1_">
					<g style="filter:url(#Adobe_OpacityMaskFilter_20_);">
					</g>
				</mask>
				
					<linearGradient id="XMLID_106_" gradientUnits="userSpaceOnUse" x1="484.5556" y1="419.0664" x2="484.5556" y2="107.8841" gradientTransform="matrix(1 0 0 -1 0 302)">
					<stop  offset="0" style="stop-color:#FFFFFF"/>
					<stop  offset="1" style="stop-color:#000000"/>
				</linearGradient>
				
					<rect id="XMLID_60_" x="433.864" y="108.079" style="mask:url(#id4_1_);fill:url(#XMLID_106_);" width="101.383" height="105.474"/>
			</g>
		</mask>
		
			<linearGradient id="XMLID_107_" gradientUnits="userSpaceOnUse" x1="484.5556" y1="419.0664" x2="484.5556" y2="107.8841" gradientTransform="matrix(1 0 0 -1 0 302)">
			<stop  offset="0" style="stop-color:#FFFFFF"/>
			<stop  offset="1" style="stop-color:#FFFFFF"/>
		</linearGradient>
		<rect id="XMLID_61_" x="433.864" y="108.079" style="fill:url(#XMLID_107_);" width="101.383" height="105.474"/>
	</mask>
	<path id="XMLID_62_" style="fill:#FFFFFF;" d="M436.511,150.384l-0.04,0.04c11.093,4.771,27.988,0.534,34.119-5.596l20.981-20.981
		l12.625-12.625c1.931-1.931,5.081-1.931,7.012,0l10.739,10.739c1.29,1.29,2.474,2.649,3.55,4.065
		c1.912,2.515,3.484,5.211,4.715,8.021c6.369,14.539,3.613,32.155-8.264,44.033l-32.328,32.33c-1.933,1.931-5.091,1.938-7.014,0
		l-12.585-12.665l-35.877-35.797l34.114,35.556l13.345,13.908c2.484,2.484,6.532,2.484,9.018,0l32.328-32.33
		c11.984-11.984,15.338-30.132,8.56-45.605c-1.293-2.952-2.935-5.743-4.885-8.309c-1.127-1.484-2.356-2.89-3.675-4.209
		L512.21,110.22c-2.484-2.484-6.532-2.484-9.016,0l-33.606,33.606C462.64,150.774,446.749,153.452,436.511,150.384L436.511,150.384z
		"/>
	<defs>
		<filter id="Adobe_OpacityMaskFilter_21_" filterUnits="userSpaceOnUse" x="406.414" y="37.848" width="77.148" height="224.422">
			<feColorMatrix  type="matrix" values="1 0 0 0 0  0 1 0 0 0  0 0 1 0 0  0 0 0 1 0"/>
		</filter>
	</defs>
	<mask maskUnits="userSpaceOnUse" x="406.414" y="37.848" width="77.148" height="224.422" id="id6_1_">
		<defs>
			<filter id="Adobe_OpacityMaskFilter_22_" filterUnits="userSpaceOnUse" x="406.135" y="37.569" width="77.705" height="224.979">
				<feFlood  style="flood-color:white;flood-opacity:1" result="back"/>
				<feBlend  in="SourceGraphic" in2="back" mode="normal"/>
			</filter>
		</defs>
		
			<mask maskUnits="userSpaceOnUse" x="406.135" y="37.569" width="77.705" height="224.979" id="id6_1_" style="filter:url(#Adobe_OpacityMaskFilter_21_);">
			<g style="filter:url(#Adobe_OpacityMaskFilter_22_);">
				<defs>
					
						<filter id="Adobe_OpacityMaskFilter_23_" filterUnits="userSpaceOnUse" x="406.135" y="37.569" width="77.705" height="224.979">
						<feFlood  style="flood-color:white;flood-opacity:1" result="back"/>
						<feBlend  in="SourceGraphic" in2="back" mode="normal"/>
					</filter>
				</defs>
				<mask maskUnits="userSpaceOnUse" x="406.135" y="37.569" width="77.705" height="224.979" id="id6_1_">
					<g style="filter:url(#Adobe_OpacityMaskFilter_23_);">
					</g>
				</mask>
				
					<linearGradient id="XMLID_108_" gradientUnits="userSpaceOnUse" x1="444.988" y1="-301.4508" x2="444.988" y2="290.139" gradientTransform="matrix(1 0 0 -1 0 302)">
					<stop  offset="0" style="stop-color:#FFFFFF"/>
					<stop  offset="1" style="stop-color:#000000"/>
				</linearGradient>
				
					<rect id="XMLID_57_" x="406.135" y="37.569" style="mask:url(#id6_1_);fill:url(#XMLID_108_);" width="77.705" height="224.979"/>
			</g>
		</mask>
		
			<linearGradient id="XMLID_109_" gradientUnits="userSpaceOnUse" x1="444.988" y1="-301.4508" x2="444.988" y2="290.139" gradientTransform="matrix(1 0 0 -1 0 302)">
			<stop  offset="0" style="stop-color:#FFFFFF"/>
			<stop  offset="1" style="stop-color:#FFFFFF"/>
		</linearGradient>
		<rect id="XMLID_58_" x="406.135" y="37.569" style="fill:url(#XMLID_109_);" width="77.705" height="224.979"/>
	</mask>
	<path id="XMLID_59_" style="fill:#FFFFFF;" d="M470.611,38.893c-0.191-0.354-0.385-0.704-0.581-1.045
		c7.782,18.091,2.238,29.856-9.791,41.887l-42.225,42.225c-15.465,15.463-15.465,40.656,0,56.119l48.311,48.313
		c0.671,0.607,1.314,1.248,1.921,1.919c4.322,4.781,6.955,11.117,6.955,18.07c0,5.941-1.924,11.434-5.18,15.889l13.457-13.459
		c0.057-0.806,0.085-1.617,0.085-2.43c0-8.773-3.233-17.172-9.118-23.678l-0.139-0.154l-50.381-50.381
		c-10.663-10.663-12.188-27.558-3.63-39.949c1.075-1.555,2.292-3.011,3.63-4.348l36.357-36.357
		C475.215,76.58,480.064,58.577,470.611,38.893L470.611,38.893z"/>
</g>
</svg>
